<?xml version="1.0" encoding="utf-8"?>
<!-- Generator: Adobe Illustrator 23.0.3, SVG Export Plug-In . SVG Version: 6.00 Build 0)  -->
<svg version="1.1" id="Layer_1" xmlns="http://www.w3.org/2000/svg" xmlns:xlink="http://www.w3.org/1999/xlink" x="0px" y="0px"
	 viewBox="0 0 106.6 106.6" style="enable-background:new 0 0 106.6 106.6;" xml:space="preserve">
<style type="text/css">
	.st0{fill:url(#SVGID_1_);}
	.st1{fill:url(#SVGID_2_);}
	.st2{fill:url(#SVGID_3_);}
	.st3{fill:url(#SVGID_4_);}
	.st4{fill:url(#SVGID_5_);}
	.st5{fill:url(#SVGID_6_);}
	.st6{fill:url(#SVGID_7_);}
	.st7{fill:url(#SVGID_8_);}
	.st8{fill:url(#SVGID_9_);}
	.st9{fill:url(#SVGID_10_);}
	.st10{fill:#494949;}
	.st11{fill:#505050;}
	.st12{fill:#515151;}
	.st13{fill:#4A4A4A;}
	.st14{fill:#4D4D4D;}
	.st15{fill:#535353;}
	.st16{fill:#525252;}
	.st17{fill:#4F4F4F;}
	.st18{fill:#4C4C4C;}
	.st19{fill:#4E4E4E;}
	.st20{fill:#4B4B4B;}
	.st21{fill:#FFFFFF;}
	.st22{fill:url(#SVGID_11_);}
	.st23{fill:url(#SVGID_12_);}
	.st24{fill:url(#SVGID_13_);}
	.st25{fill:url(#SVGID_14_);}
	.st26{fill:url(#SVGID_15_);}
	.st27{fill:url(#SVGID_16_);}
	.st28{fill:#079EE3;}
	.st29{fill: #198754;}
	.st30{fill:#003263;}
	.st31{fill:#FEFEFE;}
	.st32{fill:#F9F9F9;}
	.st33{fill:#FAFAFA;}
	.st34{fill:#F8F8F8;}
	.st35{fill:#EDEDED;}
	.st36{fill:#FCFCFC;}
	.st37{fill:#FDFDFD;}
	.st38{fill:#FBFBFB;}
	.st39{fill:#CFCFCF;}
	.st40{fill:#545454;}
	.st41{fill:#9D9D9D;}
	.st42{fill:#E7E7E7;}
	.st43{fill:#555555;}
	.st44{fill:#F5F5F5;}
	.st45{fill:#F4F4F4;}
	.st46{fill:#EBEBEB;}
	.st47{fill:#DFDFDF;}
	.st48{fill:#DADADA;}
	.st49{fill:#E3E3E3;}
	.st50{fill:#F1F1F1;}
	.st51{fill:#EEEEEE;}
	.st52{fill:#ECECEC;}
	.st53{fill:#1B83B8;}
	.st54{fill:#F7AD28;}
	.st55{fill:#91BF3B;}
	.st56{fill:#91BE3F;}
	.st57{fill:#033661;}
</style>
<g>
	<path class="st29" d="M80.4,18.4c-0.6,0.6-1.3,1.1-1.8,1.7c-3.1,3.1-6.2,6.2-9.3,9.3c-1.2,1.2-2.5,2.3-4,0.7
		c-1.6-1.6-0.5-2.9,0.7-4c3.1-3.1,6.2-6.3,9.3-9.3c1.4-1.3,2-2.3,0.2-3.7c-1.3-1-1.8-2.5-0.5-3.8c1.3-1.3,2.7-0.6,3.8,0.5
		c6.5,6.6,13.1,13.1,19.7,19.7c1.2,1.2,1.8,2.5,0.6,3.8c-1.3,1.4-2.8,0.9-3.8-0.4c-1.6-2.2-2.6-1-3.9,0.3c-2.8,2.9-5.7,5.7-8.5,8.5
		c-1.3,1.2-2.6,3.2-4.5,1.4c-2-1.8-0.2-3.2,1.1-4.5c3.1-3.1,6.2-6.2,9.3-9.3c0.6-0.6,1.7-1.2,0.6-2.3c-2.6-2.6-5.2-5.2-7.8-7.8
		C81.1,18.9,80.8,18.7,80.4,18.4z"/>
	<path class="st29" d="M82.9,25.3c-0.2,0.4-0.4,1-0.8,1.4c-2.4,2.4-4.8,4.8-7.2,7.2c-1.1,1.1-2.4,1.4-3.5,0.3
		c-1.2-1.1-0.9-2.4,0.2-3.5c2.4-2.4,4.8-4.8,7.2-7.2c0.9-0.9,1.9-1.1,3-0.5C82.6,23.4,82.8,24.2,82.9,25.3z"/>
	<g>
		<path class="st29" d="M57.6,40.3C48,49.8,38.4,59.4,28.8,69c-1.1,1.1-2.1,2.4-0.7,3.8c1.4,1.5,2.8,0.8,4.1-0.5
			c0.7-0.7,1.4-2.3,2.8-0.7c1.1,1.3,2.6,2.2,4,0.6c1.3-1.4,0.6-2.7-0.6-3.8c-1.5-1.3-0.3-2.1,0.5-2.9c0.8-0.8,1.6-2.1,2.9-0.5
			c1.1,1.3,2.4,1.9,3.8,0.7c1.5-1.3,0.9-2.7-0.4-3.8c-1.6-1.4-0.5-2.2,0.4-3.2c0.9-0.9,1.7-1.8,2.9-0.3c1,1.2,2.4,1.9,3.8,0.5
			c1.4-1.4,0.6-2.7-0.5-3.8c-0.6-0.6-1.4-1.2-0.4-2.1c0.9-0.8,1.5-1.9,2.8-2.3c0.7,0.6,1.3,1.2,2,1.7c0.9,0.6,1.8,0.7,2.7,0
			c0.9-0.7,1.4-1.9,0.7-2.5c-3.3-3.1-0.5-4.6,1.4-6.5c1.2-1.2,1.7-2.5,0.4-3.8C60,38.3,58.7,39.1,57.6,40.3z"/>
		<path class="st29" d="M86.2,52.5C76,42.3,65.8,32.1,55.6,21.9c-1.1-1.1-2.4-1.4-3.5-0.2c-1.1,1.2-0.8,2.4,0.3,3.5
			c0.3,0.3,0.6,0.8,1,1c2.2,1.5,1.8,2.7,0,4.5C41.2,42.7,29.2,54.9,17,66.9c-1.7,1.6-2.3,3.2-1.7,5.5c1,3.8,1.6,7.6,2.6,11.4
			c0.5,1.9,0.2,3.2-1.3,4.5c-2.8,2.5-5.4,5.3-8.1,8c-1.2,1.2-2.4,2.4-0.9,4c1.7,1.9,3.1,0.4,4.3-0.8c2.8-2.7,5.5-5.5,8.3-8.3
			c0.7-0.7,1.2-1.6,2.4-1.3c4.2,0.9,8.4,1.6,12.5,2.8c2.7,0.8,4.5,0.2,6.4-1.8c11.5-11.7,23.2-23.1,34.6-34.8
			c2.3-2.4,4.1-4.1,6.6-0.4c0.9,1.3,2.5,1.7,3.8,0.3C87.7,54.8,87.3,53.5,86.2,52.5z M74.9,51c-12.1,12-23.8,24.3-36.2,35.8
			c-4,3.7-9.3-1-14.1-1.2c-2.2-0.1-1.9-2.2-2.3-3.6c-0.8-3.3-1.5-6.7-2.2-10c-0.3-1.3,0.6-2,1.4-2.8c11.9-11.9,23.9-23.8,35.7-35.8
			c1.2-1.2,1.9-1.4,3.2-0.1c4.8,4.9,9.6,9.7,14.5,14.5C76.1,48.9,76.2,49.7,74.9,51z"/>
	</g>
</g>
</svg>
