<?xml version="1.0" encoding="UTF-8" standalone="no"?> <svg xmlns="http://www.w3.org/2000/svg" width="45.47" height="48" viewBox="0 0 45.47 48">
  <defs>
    <style>
      .a {
        fill: #d3d4ed;
      }
    </style>
  </defs>
  <title>12 Settings</title>
  <path class="a" d="M44.46,29.62,43,28.78a2,2,0,0,1-1-2,19.42,19.42,0,0,0,0-5.56,2.08,2.08,0,0,1,1.17-2.11l1.26-.73a2,2,0,0,0,.89-2.4,22.92,22.92,0,0,0-1.61-3.57c-.15-.28-.32-.57-.49-.85A23.43,23.43,0,0,0,41,8.42a2.07,2.07,0,0,0-2.71-.32L37,8.84a2,2,0,0,1-2.22-.15A19.2,19.2,0,0,0,30,5.9a2,2,0,0,1-1.23-1.84V2.37a2,2,0,0,0-1.64-2,24.57,24.57,0,0,0-8.72,0,2,2,0,0,0-1.64,2V4.06A2,2,0,0,1,15.5,5.9a19.2,19.2,0,0,0-4.81,2.79,2,2,0,0,1-2.22.15L7,8a2,2,0,0,0-2.53.43,23.43,23.43,0,0,0-2.27,3.14c-.17.28-.34.57-.49.85A22.92,22.92,0,0,0,.11,16,2,2,0,0,0,1,18.38l1.45.84a2,2,0,0,1,1,2,19.42,19.42,0,0,0,0,5.56,2,2,0,0,1-1,2L1,29.62A2,2,0,0,0,.11,32a22.92,22.92,0,0,0,1.61,3.57c.15.28.32.57.49.85a23.43,23.43,0,0,0,2.27,3.14A2,2,0,0,0,7,40l1.46-.85a2,2,0,0,1,2.22.15A19.2,19.2,0,0,0,15.5,42.1a2,2,0,0,1,1.23,1.84v1.69a2,2,0,0,0,1.64,2,24.57,24.57,0,0,0,8.72,0,2,2,0,0,0,1.64-2V43.94A2,2,0,0,1,30,42.1a19.2,19.2,0,0,0,4.81-2.79A2,2,0,0,1,37,39.16l1.46.85A2,2,0,0,0,41,39.58a23.43,23.43,0,0,0,2.27-3.14c.17-.28.34-.57.49-.85A22.92,22.92,0,0,0,45.35,32,2,2,0,0,0,44.46,29.62ZM22.73,33a9,9,0,1,1,9-9A9,9,0,0,1,22.73,33Z"/>
</svg>
